<svg width="1919.9999999999998" height="1080" xmlns="http://www.w3.org/2000/svg" fill="#000000">
 <g id="Layer_1">
  <title>Layer 1</title>
  <path fill="#431919" id="svg_2" d="m-37.25248,1131.99551c-46.71751,-1121.99192 -67.99982,-165.99956 69.99982,-197.99948c137.99964,-31.99992 67.99982,13.99996 139.99963,-31.99992c71.99981,-45.99988 91.99976,-47.99987 219.99942,-23.99994c127.99966,23.99994 173.99954,-41.99989 315.99917,77.9998c141.99963,119.99969 331.99913,81.99978 417.9989,-23.99994c85.99977,-105.99972 285.99925,-259.99932 399.99895,-107.99972c113.9997,151.9996 163.41592,102.27721 340.24912,96.24976c176.83321,-6.02745 109.7497,37.74989 109.7497,41.74987c0,3.99999 -21.99994,245.99935 -23.99752,244.00079c1.99758,1.99857 -738.00048,125.99824 -739.998,123.99967c1.99752,1.99857 -1047.99973,-116.00112 -1049.99716,-117.99968c1.99744,1.99857 -250.0019,7.99855 -249.99932,5.99998c-0.00258,1.99857 -30.0025,-1309.99499 49.99729,-86.0012z" opacity="NaN"/>
  <path fill="#431919" id="svg_4" d="m-46.83478,97.26715c6.66754,-182.22189 64.4445,177.77792 200.00016,113.33342c135.55566,-64.4445 135.55566,-184.44459 215.55573,-102.2223c80.00006,82.22229 75.55562,171.11125 173.33347,100.00008c97.77786,-71.11117 137.77789,-197.77794 242.22242,-102.2223c104.44453,95.55563 146.66678,193.33349 224.44462,84.44451c77.77784,-108.88898 111.1112,-186.66682 177.77792,-124.44454c66.66672,62.22227 191.11126,206.66683 262.22243,124.44454l71.11043,-82.22271c166.66754,-55.55517 113.33416,42.22268 180.00088,28.88934c66.66672,-13.33334 132.67988,217.90872 193.33349,75.55562c60.65361,-142.35311 173.33347,144.96768 242.22242,-43.92136c68.88894,-188.88904 -957.77854,-380.52342 -957.7793,-378.30164c0.00075,-2.22178 -1015.55561,77.77828 -1015.55561,80.0005c0,2.22222 -235.55574,182.22237 -233.33433,182.22194c-2.22142,0.00043 42.22306,233.33395 44.44448,233.33353c-2.22142,0.00042 -26.66675,-6.66673 -19.99921,-188.88862z" opacity="NaN"/>
 </g>
</svg>